<?xml version="1.0" encoding="UTF-8"?>
<svg id="Layer_1" data-name="Layer 1" xmlns="http://www.w3.org/2000/svg" viewBox="0 0 150 24">
  <defs>
    <style>
      .cls-1 {
        fill: #4cb5f5;
      }
    </style>
  </defs>
  <path class="cls-1" d="M22.6,15.29l-1.71,1.71-1.71-1.71c-.19-.19-.29-.44-.29-.71v-2.33c0-3.41-2.73-6.34-6.15-6.26-3.19,.08-5.78,2.66-5.85,5.85-.08,3.41,2.85,6.15,6.26,6.15h8.74c.55,0,1,.45,1,1v2c0,.55-.45,1-1,1H13.21c-5.3,0-9.92-3.99-10.29-9.28C2.49,6.63,7.53,1.6,13.61,2.03c5.29,.37,9.28,4.99,9.28,10.29v1.95c0,.6-.11,.85-.29,1.04Z"/>
  <path class="cls-1" d="M31.83,22c-1.98,0-3.52-.62-4.61-1.87-1.09-1.25-1.63-3-1.63-5.27s.54-4.03,1.63-5.28c1.09-1.24,2.63-1.86,4.61-1.86s3.52,.62,4.61,1.86c1.09,1.24,1.64,3,1.64,5.28s-.54,4.02-1.64,5.27c-1.09,1.25-2.63,1.87-4.61,1.87Zm0-3.34c.85,0,1.5-.33,1.96-.99,.46-.66,.69-1.6,.69-2.81s-.23-2.16-.69-2.82c-.46-.66-1.11-.99-1.96-.99s-1.49,.33-1.95,.99c-.46,.66-.7,1.6-.7,2.82s.23,2.15,.7,2.81c.46,.66,1.11,.99,1.95,.99Z"/>
  <path class="cls-1" d="M53.23,12.78v8.96h-3.52V13.65c0-.83-.17-1.47-.51-1.92s-.83-.67-1.46-.67c-1.77,0-2.65,1.27-2.65,3.81v6.87h-3.52V7.98h3.15l.32,2.49h.39c.13-.92,.45-1.61,.95-2.07,.5-.45,1.26-.68,2.28-.68,1.46,0,2.58,.44,3.38,1.33,.79,.88,1.19,2.12,1.19,3.73Z"/>
  <path class="cls-1" d="M69.3,21.69c-.57,.1-1.13,.18-1.67,.23-.54,.05-1.12,.08-1.73,.08-2.37,0-4.09-.48-5.14-1.43-1.06-.95-1.59-2.47-1.59-4.57v-4.79h-3.29v-3.23h3.29V3.83h3.51V7.98h6.1v3.23h-6.1v4.46c0,1.04,.27,1.8,.81,2.28,.54,.48,1.43,.71,2.67,.71,.4,0,.82-.02,1.28-.07,.45-.05,.97-.11,1.55-.19l.31,3.29Z"/>
  <path class="cls-1" d="M84.67,14.47c0-2.2-.54-3.87-1.61-5.02-1.08-1.15-2.59-1.73-4.56-1.73s-3.56,.62-4.66,1.87c-1.11,1.25-1.66,2.99-1.66,5.24s.65,4.09,1.95,5.32c1.3,1.23,3.13,1.85,5.51,1.85,.57,0,1.21-.02,1.94-.07,.73-.04,1.53-.14,2.41-.29l-.34-3.33c-.63,.12-1.25,.2-1.85,.27-.61,.06-1.22,.1-1.84,.1-1.39,0-2.46-.34-3.2-1.02-.42-.37-.72-.84-.9-1.41h8.73c.05-.56,.08-1.16,.08-1.78Zm-8.98-.66c.09-.78,.33-1.41,.7-1.89,.51-.65,1.22-.98,2.14-.98,.85,0,1.51,.25,1.98,.74,.47,.49,.71,1.2,.71,2.13h-5.53Z"/>
  <path class="cls-1" d="M99.96,12.78v8.96h-3.52V13.65c0-.83-.17-1.47-.51-1.92-.34-.45-.83-.67-1.46-.67-1.77,0-2.65,1.27-2.65,3.81v6.87h-3.52V7.98h3.14l.33,2.49h.39c.13-.92,.44-1.61,.94-2.07,.51-.45,1.27-.68,2.29-.68,1.45,0,2.58,.44,3.37,1.33,.8,.88,1.2,2.12,1.2,3.73Z"/>
  <path class="cls-1" d="M112.08,2.26c-.41-.42-.95-.63-1.62-.63s-1.21,.21-1.62,.63c-.42,.41-.63,.95-.63,1.62s.21,1.21,.63,1.62c.41,.42,.95,.63,1.62,.63s1.21-.21,1.62-.63c.42-.41,.62-.95,.62-1.62s-.2-1.21-.62-1.62Z"/>
  <polygon class="cls-1" points="116.44 18.49 116.44 21.74 103.77 21.74 103.77 18.49 108.86 18.49 108.86 11.23 104.55 11.23 104.55 7.98 112.37 7.98 112.37 18.49 116.44 18.49"/>
  <path class="cls-1" d="M127.59,2.27V10.47h-.34c-.15-.92-.49-1.61-1.01-2.07-.53-.45-1.29-.68-2.3-.68-1.72,0-3.05,.62-4,1.87s-1.42,3.01-1.42,5.28,.47,4.06,1.42,5.29,2.27,1.84,3.98,1.84c.96,0,1.73-.23,2.31-.69,.58-.46,.94-1.14,1.08-2.06h.3l.49,2.62,3.01-.13V2.27h-3.52Zm-.59,15.51c-.39,.61-1.09,.91-2.1,.91-.91,0-1.61-.32-2.08-.96-.47-.64-.71-1.59-.71-2.86s.25-2.16,.73-2.83c.49-.67,1.17-1.01,2.06-1.01s1.58,.31,2.02,.92c.45,.62,.67,1.59,.67,2.92s-.2,2.31-.59,2.91Z"/>
  <path class="cls-1" d="M140.86,22c-1.98,0-3.52-.62-4.61-1.87-1.09-1.25-1.63-3-1.63-5.27s.54-4.03,1.63-5.28c1.09-1.24,2.63-1.86,4.61-1.86s3.52,.62,4.61,1.86c1.09,1.24,1.64,3,1.64,5.28s-.54,4.02-1.64,5.27c-1.09,1.25-2.63,1.87-4.61,1.87Zm0-3.34c.85,0,1.5-.33,1.96-.99,.46-.66,.69-1.6,.69-2.81s-.23-2.16-.69-2.82c-.46-.66-1.11-.99-1.96-.99s-1.49,.33-1.95,.99c-.46,.66-.7,1.6-.7,2.82s.23,2.15,.7,2.81c.46,.66,1.11,.99,1.95,.99Z"/>
</svg>