<?xml version="1.0" standalone="no"?>
<!DOCTYPE svg PUBLIC "-//W3C//DTD SVG 20010904//EN"
 "http://www.w3.org/TR/2001/REC-SVG-20010904/DTD/svg10.dtd">
<svg version="1.0" xmlns="http://www.w3.org/2000/svg"
 width="700.000000pt" height="700.000000pt" viewBox="0 0 700.000000 700.000000"
 preserveAspectRatio="xMidYMid meet">
<metadata>
Created by potrace 1.14, written by Peter Selinger 2001-2017
</metadata>
<g transform="translate(0.000000,700.000000) scale(0.100000,-0.100000)"
fill="#000000" stroke="none">
<path d="M3338 6505 c-2 -1 -41 -5 -88 -9 -265 -19 -575 -90 -832 -190 -1071
-415 -1813 -1402 -1915 -2545 -14 -159 -6 -562 12 -631 2 -8 7 -37 10 -65 24
-219 116 -532 225 -770 16 -36 30 -68 30 -71 0 -14 153 -274 218 -369 158
-232 377 -471 592 -647 102 -83 350 -258 366 -258 4 0 15 -6 23 -14 26 -22
257 -140 361 -185 198 -84 412 -152 605 -191 132 -27 132 -27 275 -45 138 -17
363 -20 1630 -20 l1425 0 55 26 c69 33 115 79 149 149 l26 55 0 370 c0 368 0
370 -24 422 -28 62 -93 126 -159 155 l-47 21 -1410 2 c-775 1 -1435 5 -1465 9
-481 60 -862 239 -1174 551 -102 101 -142 148 -215 255 -156 228 -245 446
-295 724 -51 282 2 703 121 966 190 421 474 723 861 915 348 173 726 228 1110
160 137 -24 361 -95 399 -127 7 -6 13 -8 13 -5 0 10 151 -74 243 -136 411
-274 703 -713 802 -1205 35 -175 38 -230 40 -697 2 -462 4 -483 54 -551 20
-28 489 -502 546 -553 2 -2 126 119 275 268 288 289 301 305 319 416 10 63 8
939 -3 1010 -6 40 -10 72 -21 170 -4 28 -13 80 -20 117 -8 37 -17 81 -20 96
-36 204 -166 564 -288 795 -162 307 -329 533 -576 777 -220 218 -464 396 -731
533 -345 176 -631 261 -1055 313 -52 6 -441 14 -447 9z"/>
</g>
</svg>
